<?xml version="1.0" standalone="no"?>
<!DOCTYPE svg PUBLIC "-//W3C//DTD SVG 20010904//EN"
 "http://www.w3.org/TR/2001/REC-SVG-20010904/DTD/svg10.dtd">
<svg version="1.0" xmlns="http://www.w3.org/2000/svg"
 width="800.000000pt" height="800.000000pt" viewBox="0 0 800.000000 800.000000"
 preserveAspectRatio="xMidYMid meet">
<metadata>
Created by potrace 1.11, written by Peter Selinger 2001-2013
</metadata>
<g transform="translate(0.000000,800.000000) scale(0.100000,-0.100000)"
fill="#000000" stroke="none">
<path d="M4632 6977 c-26 -28 -51 -119 -45 -169 9 -81 130 -340 208 -442 24
-33 43 -62 40 -64 -6 -6 -186 48 -227 69 -20 10 -63 42 -95 70 -32 28 -76 62
-99 75 -92 54 -293 83 -379 54 -60 -19 -115 -49 -115 -62 0 -6 19 -36 41 -66
32 -42 55 -61 103 -82 122 -56 346 -85 455 -59 83 19 121 13 266 -40 141 -52
413 -183 472 -227 43 -32 76 -44 94 -33 36 22 -53 87 -256 188 -95 47 -152 81
-178 108 -37 38 -38 44 -48 139 -26 254 -96 464 -180 543 -28 26 -31 26 -57
-2z m93 -175 c34 -87 49 -149 72 -294 6 -36 6 -55 0 -51 -12 8 -130 253 -150
314 -15 43 -10 109 10 142 10 16 30 -16 68 -111z m-426 -296 c47 -11 93 -29
125 -51 53 -35 103 -82 95 -89 -2 -2 -45 -7 -95 -11 -95 -7 -203 8 -312 42
-61 20 -123 82 -99 101 41 34 155 37 286 8z"/>
<path d="M5122 6836 c-52 -78 -90 -164 -98 -225 -6 -41 39 -228 59 -248 13
-13 57 -7 57 8 0 5 19 39 41 76 32 52 46 89 61 165 18 93 19 102 3 185 -27
142 -50 149 -123 39z m77 -71 c1 -25 -3 -73 -9 -107 -12 -63 -59 -180 -78
-192 -28 -17 -33 125 -8 201 18 54 70 143 84 143 5 0 9 -20 11 -45z"/>
<path d="M3167 6853 c-29 -31 -73 -129 -82 -185 -3 -18 -10 -59 -16 -92 -6
-32 -9 -84 -8 -115 3 -86 24 -101 78 -55 95 80 158 306 123 439 -12 43 -57 46
-95 8z m40 -116 c-7 -72 -49 -213 -72 -242 -15 -19 -16 -15 -11 55 5 74 28
156 60 218 9 18 19 32 23 32 3 0 3 -28 0 -63z"/>
<path d="M2548 6773 c-49 -57 -132 -359 -133 -483 0 -77 3 -92 32 -150 l32
-65 -47 -48 c-26 -27 -89 -80 -139 -119 -51 -38 -93 -74 -93 -79 0 -26 36 -17
110 27 97 58 149 104 230 204 74 92 92 128 124 250 44 169 22 421 -41 468 -24
17 -57 15 -75 -5z m78 -273 c-3 -58 -7 -114 -10 -125 -19 -88 -41 -153 -65
-192 l-28 -45 -22 45 c-28 58 -28 112 -1 251 20 101 32 139 76 241 l17 40 19
-55 c17 -46 19 -72 14 -160z"/>
<path d="M4377 6753 c-22 -6 -47 -54 -47 -91 0 -84 138 -110 176 -34 17 35 -3
90 -41 113 -29 18 -52 21 -88 12z m67 -75 c15 -25 -17 -57 -42 -42 -22 14 -28
44 -10 55 18 12 39 7 52 -13z"/>
<path d="M3325 6628 c-15 -14 -28 -38 -31 -59 -5 -29 -1 -41 22 -68 25 -30 31
-33 73 -29 100 10 142 58 107 122 -10 19 -29 39 -42 45 -42 19 -100 14 -129
-11z m99 -34 c23 -9 20 -40 -5 -58 -40 -28 -89 13 -59 49 13 16 38 19 64 9z"/>
<path d="M3339 6440 c-211 -53 -449 -165 -449 -210 0 -31 34 -25 119 21 83 46
291 120 401 143 54 11 78 12 96 4 13 -6 24 -15 24 -19 0 -5 27 -37 59 -72 66
-70 115 -100 268 -162 87 -36 110 -41 136 -34 48 14 62 34 60 84 -2 57 -28
101 -73 121 -19 9 -62 29 -94 45 -33 16 -65 29 -73 29 -7 0 -35 11 -61 24 -61
31 -92 37 -227 42 -86 3 -127 0 -186 -16z m425 -86 c124 -49 203 -91 216 -113
5 -11 10 -31 10 -45 0 -22 -4 -26 -30 -26 -42 0 -243 92 -296 135 -23 20 -53
50 -65 67 l-22 31 49 -7 c27 -4 89 -23 138 -42z"/>
<path d="M2008 6363 c-29 -33 -48 -111 -48 -197 0 -90 10 -131 48 -188 45 -69
66 -59 103 51 28 84 28 168 -1 245 -22 56 -58 106 -78 106 -5 0 -16 -8 -24
-17z m65 -198 c1 -27 -5 -71 -12 -98 -13 -46 -14 -47 -29 -26 -19 28 -21 172
-3 214 l13 30 15 -35 c8 -19 16 -57 16 -85z"/>
<path d="M5231 6363 c-18 -15 -23 -29 -23 -62 1 -59 25 -84 91 -96 40 -7 87
17 95 49 7 30 -18 92 -44 106 -40 21 -95 22 -119 3z m95 -81 c-14 -44 -66 -33
-66 14 0 13 8 27 18 33 24 14 57 -19 48 -47z"/>
<path d="M2745 6235 c-53 -19 -65 -38 -65 -107 0 -62 13 -79 73 -94 38 -9 115
14 129 39 18 35 4 106 -28 137 -38 37 -61 42 -109 25z m83 -92 c4 -38 -17 -55
-60 -51 -31 3 -33 5 -33 43 0 32 5 42 25 52 33 16 64 -3 68 -44z"/>
<path d="M1716 6167 c-13 -13 -34 -50 -47 -83 -20 -52 -23 -76 -24 -204 0
-163 15 -226 65 -280 42 -44 65 -40 95 20 43 86 58 163 51 270 -10 171 -59
300 -112 300 -3 0 -15 -10 -28 -23z m47 -84 c37 -134 42 -303 13 -391 -10 -28
-21 -50 -26 -47 -45 28 -63 300 -27 403 19 54 32 65 40 35z"/>
<path d="M2956 6181 c-16 -3 -34 -13 -39 -22 -14 -23 28 -60 113 -102 65 -32
66 -32 221 -32 159 0 189 6 189 41 0 20 -96 79 -160 99 -56 18 -264 28 -324
16z m329 -66 c104 -30 71 -45 -90 -42 -84 2 -107 6 -145 27 -43 23 -44 24 -20
30 41 11 197 2 255 -15z"/>
<path d="M5445 6078 c-56 -32 -68 -72 -35 -126 27 -43 77 -67 125 -58 87 17
113 100 51 162 -28 28 -41 34 -77 34 -24 0 -53 -6 -64 -12z m95 -53 c17 -21 4
-62 -22 -68 -26 -7 -68 16 -68 38 0 38 65 60 90 30z"/>
<path d="M4585 6061 c-101 -32 -182 -93 -275 -210 -19 -24 -43 -52 -52 -62
-10 -11 -18 -21 -18 -24 0 -3 -6 -15 -13 -28 -54 -87 -80 -133 -81 -143 -1 -7
-7 -18 -12 -25 -14 -18 -87 -199 -87 -216 0 -7 -3 -13 -7 -13 -4 0 -7 -6 -8
-12 -2 -21 -7 -42 -14 -53 -3 -5 -9 -26 -14 -45 -11 -49 -11 -49 -14 -55 -3
-6 -3 -5 -15 -60 -4 -22 -10 -47 -12 -55 -2 -8 -6 -31 -9 -50 -4 -19 -11 -41
-16 -47 -7 -9 -7 -13 0 -13 6 0 4 -17 -5 -42 -8 -23 -13 -53 -11 -67 1 -14 -1
-31 -5 -37 -3 -6 -9 -32 -11 -56 -3 -25 -7 -56 -11 -69 -3 -13 -8 -46 -10 -74
-3 -27 -8 -70 -10 -95 -3 -25 -7 -70 -9 -100 -3 -30 -6 -55 -7 -55 -2 0 -10
-122 -12 -182 -1 -24 -5 -43 -10 -43 -4 0 -3 -8 2 -19 6 -10 8 -21 4 -24 -6
-6 -10 -84 -13 -242 -2 -76 -4 -83 -43 -140 -49 -71 -109 -149 -119 -153 -5
-2 -8 -10 -8 -17 0 -7 -3 -15 -8 -17 -4 -1 -32 -36 -62 -75 -30 -40 -58 -73
-62 -73 -5 0 -8 -7 -8 -16 0 -8 -4 -12 -10 -9 -5 3 -10 2 -10 -3 0 -19 -177
-182 -197 -182 -7 0 -13 -4 -13 -9 0 -19 -149 -73 -210 -76 -22 -1 -73 17 -86
29 -19 20 -43 61 -47 81 -2 11 -7 31 -10 45 -10 38 -15 120 -7 120 4 0 6 10 5
23 -5 56 60 212 107 257 101 97 150 -13 56 -125 -23 -27 -24 -33 -12 -49 49
-67 134 26 139 153 4 98 -57 173 -145 177 -19 0 -39 -2 -45 -5 -9 -5 -14 -7
-33 -10 -21 -3 -82 -72 -111 -123 -17 -32 -29 -58 -26 -58 5 0 -36 -59 -60
-86 -5 -6 -35 -40 -65 -76 -78 -91 -181 -168 -275 -203 -49 -19 -191 -26 -240
-12 -11 3 -34 10 -52 16 -17 5 -34 7 -37 3 -3 -3 -6 1 -6 8 0 7 -3 11 -6 8 -3
-4 -48 9 -100 27 -52 18 -94 31 -94 29 0 -3 -10 2 -22 10 -12 9 -32 16 -44 16
-11 0 -24 3 -28 7 -3 4 -12 8 -19 9 -7 1 -25 5 -42 9 -16 3 -40 8 -52 10 -12
2 -27 6 -33 10 -6 4 -27 9 -48 11 -20 3 -44 7 -52 9 -8 3 -33 7 -55 11 -22 3
-42 7 -45 9 -7 4 -147 17 -213 20 -26 1 -50 4 -53 8 -3 3 -12 3 -19 1 -8 -3
-17 12 -25 43 -23 82 -97 267 -148 370 -80 158 -191 296 -272 338 -28 14 -31
14 -50 -5 -16 -16 -20 -33 -20 -92 0 -98 20 -186 71 -315 79 -200 162 -300
289 -348 77 -30 113 -52 105 -65 -3 -5 -1 -10 4 -12 17 -6 101 -188 117 -255
17 -71 35 -100 53 -89 26 17 0 158 -45 248 -51 100 -51 97 19 92 125 -10 153
-12 177 -19 14 -4 39 -8 55 -10 17 -1 30 -4 30 -5 0 -1 26 -6 75 -14 23 -3
141 -32 165 -40 6 -2 12 -4 15 -4 3 0 28 -9 55 -20 28 -11 52 -20 55 -20 7 -1
26 -7 95 -32 33 -12 67 -23 75 -25 8 -2 16 -4 18 -5 1 -2 7 -4 12 -5 6 -1 12
-4 15 -5 3 -1 10 -4 15 -5 6 -1 11 -3 13 -5 1 -1 11 -3 22 -4 11 -2 43 -6 70
-11 28 -4 55 -7 60 -7 28 2 94 12 125 18 19 4 37 8 40 8 29 5 189 97 220 126
22 21 40 35 40 32 0 -2 10 8 22 24 38 51 40 51 33 -1 -11 -85 -11 -90 -6 -100
3 -5 6 -17 6 -25 0 -26 28 -84 58 -123 45 -58 107 -84 198 -82 41 1 83 4 94 7
155 44 293 143 463 332 23 26 42 50 42 54 0 4 18 27 40 52 22 24 40 47 40 51
0 4 6 14 13 21 7 7 26 34 44 60 l31 48 2 -98 c3 -147 8 -287 10 -287 1 0 3
-25 5 -55 12 -179 19 -200 65 -196 16 1 33 5 36 9 4 4 16 7 26 7 10 0 18 5 18
10 0 19 2 25 9 35 5 6 7 39 5 75 -9 174 -11 300 -4 300 3 0 6 10 5 23 -5 53
99 186 148 188 55 3 83 -5 104 -28 41 -43 55 -79 70 -176 5 -33 3 -39 -16 -44
-11 -3 -21 -10 -21 -16 0 -6 -3 -7 -6 -4 -17 16 -136 -96 -161 -151 -46 -104
-35 -170 31 -198 23 -10 46 -16 51 -15 11 3 35 9 65 15 11 3 27 12 36 20 8 9
19 16 23 16 18 0 85 79 107 128 21 47 27 71 38 151 2 16 17 32 47 48 87 49
174 123 242 205 17 22 41 50 52 62 11 13 27 33 35 46 8 12 21 28 28 36 6 7 12
17 12 23 0 18 163 177 220 215 101 66 188 86 315 73 22 -3 47 -7 55 -10 53
-18 121 -37 134 -37 9 0 16 -4 16 -10 0 -5 11 -10 24 -10 14 0 28 -4 31 -10 3
-5 16 -10 29 -10 12 0 27 -5 34 -12 7 -7 12 -8 12 -4 0 5 7 3 15 -4 8 -7 15
-9 15 -5 0 4 6 2 14 -4 8 -6 18 -11 22 -10 5 1 16 -1 24 -4 23 -9 103 -31 121
-33 9 0 29 -5 45 -9 38 -11 53 -14 89 -20 17 -2 41 -6 55 -9 42 -7 142 -19
186 -21 23 -1 46 -5 52 -9 14 -8 6 -199 -13 -301 -8 -44 -17 -102 -21 -130 -3
-27 -7 -51 -9 -53 -3 -3 -43 118 -60 183 -31 117 -162 295 -217 295 -47 0 -62
-31 -55 -114 7 -96 32 -153 135 -310 82 -123 124 -166 165 -166 11 0 17 -8 17
-22 -1 -39 -37 -190 -65 -268 -30 -84 -184 -391 -215 -430 l-20 -25 0 99 c0
147 -55 402 -97 448 -31 34 -59 23 -87 -34 -45 -93 -57 -164 -52 -295 6 -157
45 -266 115 -323 l34 -29 -27 -31 c-46 -56 -27 -67 38 -22 48 33 151 184 206
300 29 61 44 82 58 82 11 0 64 -9 118 -21 166 -34 379 -9 458 54 17 14 25 28
21 37 -7 19 -73 48 -140 62 -80 16 -297 -23 -428 -77 -15 -6 -12 5 16 61 20
38 47 103 62 145 15 43 41 93 60 115 l34 39 118 0 c111 0 122 2 194 33 50 21
102 55 148 95 66 56 77 73 127 174 58 120 63 140 38 150 -15 5 -92 -4 -189
-22 -100 -20 -251 -84 -288 -123 -23 -25 -106 -154 -150 -233 -23 -42 -37 -24
-27 34 11 59 18 112 35 267 2 19 8 55 14 80 5 25 13 72 16 105 12 100 4 561
-11 660 -3 22 -8 54 -10 70 -11 73 -29 102 -51 84 -11 -10 -13 -35 -7 -130 l7
-118 -119 118 c-104 102 -131 123 -214 165 -71 35 -111 49 -156 53 -75 7 -82
-4 -53 -82 39 -105 181 -281 273 -340 41 -25 168 -79 257 -108 12 -4 16 -19
17 -62 l0 -56 -43 4 c-24 3 -48 8 -54 12 -6 3 -11 2 -11 -4 0 -7 -8 -7 -22 -2
-23 8 -121 23 -165 25 -13 1 -23 5 -23 9 0 5 -4 6 -9 3 -5 -4 -20 -2 -34 3
-13 5 -37 12 -53 14 -61 11 -197 54 -279 87 -27 11 -58 23 -67 25 -5 2 -9 3
-10 5 -2 1 -10 3 -18 5 -8 2 -40 11 -70 19 -112 32 -215 36 -310 14 -121 -29
-282 -140 -350 -241 -14 -20 -28 -37 -32 -37 -5 0 -8 -6 -8 -12 0 -7 -16 -30
-35 -50 -19 -20 -35 -40 -35 -45 0 -10 -48 -67 -115 -138 -57 -60 -166 -139
-175 -128 -3 5 -16 41 -30 81 -30 93 -77 143 -152 164 -73 20 -161 15 -215
-13 -45 -23 -93 -65 -93 -81 0 -5 -4 -7 -10 -3 -5 3 -9 52 -9 108 1 91 4 107
28 149 14 27 29 48 34 48 4 0 7 6 7 13 0 7 8 22 18 33 9 10 23 31 31 47 8 15
18 27 23 27 4 0 8 6 8 13 0 8 18 39 40 71 22 31 40 59 40 61 0 2 27 47 60 100
34 52 65 107 70 120 5 14 14 25 20 25 5 0 10 6 10 13 0 7 8 22 18 33 9 11 18
26 20 34 2 8 9 22 16 30 12 14 34 51 78 130 70 124 82 146 87 150 3 3 7 11 9
18 1 8 20 45 42 83 21 38 36 69 32 69 -4 0 -2 4 3 8 13 9 115 214 115 230 0 7
4 12 9 12 5 0 11 10 14 23 3 12 15 47 26 77 12 30 23 64 26 75 2 11 7 31 10
45 4 14 8 58 10 97 2 40 6 77 10 83 3 5 2 10 -4 10 -6 0 -6 11 -1 29 4 16 6
32 3 35 -3 3 -7 24 -9 48 -2 24 -5 50 -7 58 -2 8 -7 31 -11 50 -34 157 -146
240 -271 201z m97 -80 c12 -2 83 -71 74 -71 -5 0 -4 -6 1 -12 18 -22 39 -134
44 -233 4 -58 -27 -226 -54 -295 -3 -8 -15 -42 -27 -75 -27 -77 -221 -465
-232 -465 -4 0 -8 -7 -8 -15 0 -17 -28 -65 -45 -77 -5 -4 -7 -8 -2 -8 4 0 -4
-18 -18 -40 -14 -22 -25 -44 -25 -50 0 -5 -4 -10 -8 -10 -4 0 -21 -25 -37 -56
-34 -62 -47 -86 -76 -129 -10 -16 -22 -38 -25 -47 -4 -10 -10 -18 -15 -18 -5
0 -9 -5 -9 -10 0 -9 -47 -87 -60 -100 -3 -3 -14 -22 -25 -43 -11 -21 -28 -45
-37 -54 -10 -9 -18 -24 -18 -35 0 -10 -4 -18 -8 -18 -5 0 -17 -16 -28 -35 -10
-19 -22 -35 -26 -35 -5 0 -8 -6 -8 -14 0 -7 -7 -19 -15 -26 -13 -11 -14 0 -9
96 4 60 7 133 8 161 1 29 3 53 7 53 3 0 5 10 6 23 0 24 9 115 19 217 4 36 7
73 8 83 0 9 3 17 6 17 3 0 5 15 6 33 1 40 18 140 38 227 3 14 8 36 10 50 3 14
7 36 11 50 3 14 7 34 10 45 11 50 14 64 29 120 9 33 19 69 22 80 8 30 10 38
18 60 5 11 12 34 18 50 6 17 17 44 24 62 8 17 14 35 14 41 0 16 104 211 132
247 4 6 27 35 50 65 114 149 188 204 260 191z m1398 -1564 c67 -43 194 -163
245 -232 25 -35 20 -32 -35 20 -36 33 -67 62 -70 65 -21 23 -129 99 -147 104
-18 6 -23 3 -23 -12 0 -19 21 -40 152 -153 42 -37 92 -81 110 -98 l33 -32 -83
35 c-112 47 -166 80 -194 118 -12 18 -30 40 -39 49 -37 37 -98 138 -113 186
l-7 22 53 -15 c29 -9 82 -34 118 -57z m-5293 -305 c46 -37 149 -190 196 -292
33 -73 67 -160 62 -160 -7 0 -82 107 -126 179 -49 81 -72 102 -89 85 -22 -22
10 -90 124 -262 63 -95 110 -172 104 -172 -25 0 -102 67 -144 126 -48 67 -124
243 -143 333 -16 76 -25 181 -15 181 5 0 19 -8 31 -18z m5401 -522 c22 -41 45
-97 52 -125 7 -27 26 -79 42 -114 15 -35 28 -69 28 -75 0 -40 -165 200 -203
296 -25 62 -35 136 -21 151 12 11 62 -55 102 -133z m779 -157 c-27 -61 -67
-129 -89 -153 -75 -83 -203 -149 -302 -157 -37 -2 -66 -3 -66 0 0 9 226 155
288 186 62 32 83 54 66 71 -17 17 -76 -8 -200 -84 l-122 -73 29 46 c59 92 87
111 219 151 41 12 86 26 100 30 14 5 39 9 57 9 31 1 32 0 20 -26z m-2658 -186
c-6 -26 -17 -52 -25 -58 -8 -6 -14 -17 -14 -24 0 -22 -37 -55 -70 -61 -31 -7
-32 -6 -25 17 4 13 15 38 23 54 9 17 15 33 15 36 -1 3 11 19 27 34 17 16 30
25 30 21 0 -4 10 2 22 14 12 11 23 18 25 16 2 -2 -1 -24 -8 -49z m1642 -434
c23 -102 38 -411 19 -381 -16 27 -39 167 -45 287 -4 58 -8 131 -10 161 -4 73
10 46 36 -67z m-94 -85 c-3 -8 -6 -5 -6 6 -1 11 2 17 5 13 3 -3 4 -12 1 -19z
m869 4 c17 -10 15 -12 -21 -28 -66 -28 -194 -39 -276 -25 -39 7 -67 17 -62 21
4 5 44 15 88 24 44 8 89 17 100 20 33 8 150 0 171 -12z m-858 -47 c-3 -3 -9 2
-12 12 -6 14 -5 15 5 6 7 -7 10 -15 7 -18z m8 -133 c-7 -6 -23 102 -17 113 3
6 9 -17 13 -49 4 -33 6 -61 4 -64z"/>
<path d="M6270 6033 c-107 -53 -175 -146 -206 -284 -20 -90 -14 -209 15 -295
21 -62 21 -82 0 -42 -52 99 -249 322 -353 399 -69 51 -92 28 -31 -31 41 -39
39 -48 -4 -25 -17 8 -31 13 -31 10 0 -2 17 -13 38 -24 20 -11 55 -36 77 -56
22 -20 53 -47 68 -61 33 -29 155 -199 214 -299 55 -92 238 -478 252 -532 13
-49 27 -61 47 -41 24 23 1 103 -69 250 -110 229 -130 278 -123 311 3 17 12 38
20 46 39 46 112 162 142 226 41 89 60 194 63 342 2 102 0 113 -18 122 -29 16
-41 14 -101 -16z m47 -160 c-6 -134 -27 -216 -78 -313 -73 -136 -74 -131 -19
113 12 55 19 101 17 104 -8 8 -46 -16 -56 -35 -10 -19 -50 -178 -52 -208 -1
-11 -5 1 -9 26 -12 70 -3 170 21 235 17 45 38 75 86 123 91 89 96 86 90 -45z"/>
<path d="M5888 5901 c-41 -36 -45 -80 -13 -116 13 -13 30 -23 37 -21 7 2 26 7
41 10 30 7 67 57 67 92 0 28 -41 64 -73 64 -15 0 -40 -12 -59 -29z m72 -39 c0
-10 -5 -23 -12 -30 -18 -18 -48 -15 -48 6 0 10 5 23 12 30 18 18 48 15 48 -6z"/>
<path d="M2053 5863 c-12 -3 -36 -17 -53 -33 -82 -77 21 -205 130 -160 52 22
67 134 22 172 -19 17 -65 27 -99 21z m49 -74 c34 -45 -11 -95 -58 -64 -30 19
-31 48 -2 75 26 24 35 22 60 -11z"/>
<path d="M2340 5662 c-54 -7 -299 -64 -360 -84 -80 -26 -187 -78 -260 -128
-113 -76 -206 -205 -285 -394 l-50 -119 -8 39 c-50 225 -82 315 -140 387 -31
39 -103 81 -120 70 -17 -11 -1 -165 26 -240 29 -83 70 -141 133 -184 32 -22
44 -37 46 -57 4 -87 -3 -163 -30 -297 -17 -82 -33 -172 -36 -200 -3 -27 -10
-81 -15 -120 -19 -126 -21 -157 -26 -395 -5 -240 -2 -280 20 -280 15 0 21 60
30 305 4 88 8 185 10 215 2 30 5 81 7 113 2 46 6 56 18 51 96 -36 196 -24 320
38 71 36 96 56 157 125 40 46 73 86 73 90 0 17 -47 36 -85 35 -150 -8 -217
-34 -443 -176 -21 -13 -10 78 25 216 21 82 55 169 109 286 77 163 80 168 104
160 55 -17 263 -49 357 -55 77 -4 112 -2 157 11 100 29 128 58 100 101 -35 54
-132 79 -304 78 -100 0 -176 -21 -277 -78 -24 -13 -43 -21 -43 -17 0 15 133
183 169 214 52 44 158 102 243 133 82 30 104 31 110 7 12 -44 206 -136 317
-150 31 -4 113 -6 184 -5 143 2 203 20 226 70 10 22 9 30 -13 62 -31 45 -97
106 -134 124 -71 36 -228 60 -312 49z m205 -72 c28 -7 63 -20 79 -28 35 -17
106 -90 106 -109 0 -7 -19 -18 -42 -25 -56 -17 -285 -16 -358 2 -71 16 -153
56 -182 88 l-23 24 85 -5 c60 -3 116 -15 193 -41 125 -42 137 -43 137 -15 0
23 -74 60 -177 87 -35 9 -63 20 -63 24 0 19 168 17 245 -2z m-1309 -319 c24
-49 64 -201 53 -201 -15 0 -70 90 -90 146 -10 29 -21 72 -23 95 l-4 41 23 -22
c13 -13 32 -39 41 -59z m837 -91 c15 -7 27 -17 27 -21 0 -15 -92 -42 -148 -42
-76 -1 -252 23 -252 34 0 5 1 9 3 9 1 0 27 9 57 19 67 23 267 24 313 1z m-333
-615 c0 -2 -18 -22 -39 -44 -72 -74 -204 -131 -300 -131 -71 0 -80 13 -29 42
95 56 216 113 263 124 52 13 105 17 105 9z"/>
<path d="M1414 5498 c-53 -11 -76 -37 -76 -84 0 -44 26 -82 75 -109 36 -20 37
-20 72 0 42 22 64 58 59 97 -8 76 -57 112 -130 96z m66 -84 c0 -53 -52 -73
-72 -28 -11 23 -10 29 11 45 17 14 27 16 42 9 10 -6 19 -18 19 -26z"/>
<path d="M6474 5258 c-38 -43 -44 -56 -70 -129 -31 -87 -33 -152 -10 -234 18
-62 38 -85 66 -78 17 5 28 19 71 98 51 95 65 244 29 323 -22 49 -54 56 -86 20z
m41 -104 c7 -74 -38 -234 -65 -234 -29 0 0 185 40 260 15 28 20 22 25 -26z"/>
<path d="M5608 5205 c-173 -39 -190 -75 -53 -116 97 -29 342 -39 398 -16 20 9
40 23 43 32 9 22 -25 56 -83 85 -60 30 -205 37 -305 15z m232 -42 c14 -4 28
-7 33 -8 4 -2 14 -3 22 -4 8 0 15 -8 15 -16 0 -12 -17 -15 -95 -15 -98 0 -250
18 -240 29 3 3 41 11 83 17 75 11 130 10 182 -3z"/>
<path d="M6777 4939 c-72 -11 -136 -47 -199 -111 -72 -73 -103 -130 -87 -159
9 -18 18 -20 47 -16 100 14 224 83 279 155 31 42 62 117 51 127 -10 10 -43 12
-91 4z m-27 -109 c-36 -42 -70 -69 -116 -91 -35 -18 -67 -29 -71 -25 -13 12
131 146 173 161 66 24 68 17 14 -45z"/>
<path d="M1442 4853 c-33 -13 -57 -101 -42 -149 14 -41 48 -58 102 -51 75 10
105 67 74 141 -23 54 -81 80 -134 59z m76 -56 c14 -17 2 -67 -20 -80 -21 -14
-48 -2 -48 21 0 20 36 72 50 72 4 0 12 -6 18 -13z"/>
<path d="M6289 4689 c-38 -41 -39 -86 -3 -123 15 -14 34 -26 43 -27 9 0 23 -2
33 -4 24 -5 77 31 88 61 8 19 6 34 -6 60 -34 72 -105 87 -155 33z m95 -25 c21
-20 20 -30 -4 -54 -24 -24 -34 -25 -54 -5 -17 17 -12 43 12 63 20 16 27 15 46
-4z"/>
<path d="M929 4643 c-14 -36 -14 -147 0 -206 15 -63 71 -175 109 -215 30 -32
71 -43 73 -19 10 100 -4 192 -44 298 -30 81 -66 152 -81 161 -23 15 -47 7 -57
-19z m86 -158 c23 -79 34 -145 23 -145 -19 0 -62 115 -65 175 -4 56 -3 59 12
40 9 -11 22 -42 30 -70z"/>
<path d="M1670 4200 c-148 -36 -340 -182 -340 -261 0 -25 4 -29 28 -29 15 0
55 7 90 15 119 28 203 85 264 179 41 64 47 90 22 100 -18 7 -17 7 -64 -4z m-9
-77 c-14 -26 -81 -87 -121 -110 -52 -31 -110 -45 -110 -28 0 19 94 89 167 126
68 33 77 35 64 12z"/>
<path d="M6670 4100 c-23 -23 -26 -68 -7 -93 29 -41 124 -35 141 8 29 76 -76
143 -134 85z m75 -50 c0 -8 -10 -16 -22 -18 -22 -3 -32 16 -16 32 12 11 38 2
38 -14z"/>
<path d="M6585 3914 c-26 -28 -30 -44 -27 -104 5 -90 128 -125 191 -53 19 21
22 34 17 64 -9 56 -24 84 -56 102 -44 26 -96 22 -125 -9z m103 -46 c18 -18 15
-53 -6 -71 -16 -15 -20 -15 -40 -1 -24 17 -27 35 -12 65 12 21 40 25 58 7z"/>
<path d="M1353 3780 c-43 -17 -57 -85 -28 -140 18 -35 38 -42 90 -30 43 10 85
49 85 79 0 27 -39 72 -76 87 -38 16 -41 16 -71 4z m81 -66 c8 -21 -20 -54 -45
-54 -22 0 -35 36 -19 55 17 20 56 19 64 -1z"/>
<path d="M1684 3168 c-44 -46 -68 -92 -78 -148 -3 -19 -8 -46 -11 -60 -32
-162 -20 -415 24 -514 39 -89 94 -171 167 -246 70 -74 124 -132 124 -134 0 -1
-64 -2 -142 -1 -125 0 -150 -3 -198 -22 -55 -23 -176 -121 -237 -193 -38 -45
-153 -216 -153 -228 0 -5 7 -15 15 -22 13 -11 22 -10 51 3 19 10 43 17 53 17
40 0 261 75 335 114 43 23 101 63 128 91 57 57 109 141 101 162 -5 12 2 14 33
9 21 -3 49 -5 61 -6 16 0 25 -8 29 -27 19 -75 80 -107 148 -79 38 16 40 16 85
-13 25 -16 78 -43 116 -61 39 -19 90 -46 115 -61 25 -16 95 -48 155 -72 61
-25 148 -62 195 -84 133 -63 251 -107 430 -163 91 -28 190 -59 220 -69 l55
-17 -85 -24 c-156 -43 -524 -213 -593 -272 -36 -32 -47 -61 -27 -73 5 -3 74
27 153 68 189 97 382 177 547 225 160 47 196 47 414 1 77 -17 206 -43 284 -60
371 -76 596 -153 658 -226 50 -59 77 -18 30 46 -79 107 -312 188 -786 276
-107 19 -204 39 -215 44 -28 11 125 30 305 36 80 3 172 8 205 10 33 3 101 7
150 11 109 6 218 26 342 60 86 24 96 25 130 12 21 -8 44 -13 51 -12 6 1 21 2
31 3 11 0 33 13 50 27 38 32 40 68 6 108 -14 16 -25 33 -25 37 0 10 -74 49
-93 49 -23 0 -75 -56 -82 -89 -7 -33 5 -28 -194 -85 -30 -9 -56 -14 -58 -12
-3 2 14 31 36 64 48 69 118 272 129 367 11 105 8 132 -18 160 l-24 25 -28 -27
c-32 -31 -150 -198 -178 -252 -41 -81 -46 -194 -14 -294 9 -27 14 -50 12 -52
-2 -2 -33 -7 -68 -11 -36 -3 -94 -9 -130 -14 -36 -4 -126 -8 -200 -9 -74 -1
-144 -4 -155 -6 -11 -2 -42 -7 -70 -10 -27 -3 -63 -7 -80 -10 -196 -31 -243
-38 -263 -40 -37 -3 -224 41 -362 85 -69 22 -161 52 -205 66 -62 20 -335 136
-353 150 -2 1 0 29 5 61 10 64 5 103 -28 225 -20 75 -27 87 -78 135 -95 92
-137 83 -128 -27 5 -68 27 -178 53 -269 8 -29 13 -55 11 -58 -10 -9 -346 180
-348 196 0 3 -2 20 -4 38 -5 44 -21 71 -58 93 -38 24 -87 26 -127 5 -28 -14
-30 -13 -77 24 -145 117 -287 310 -307 418 -4 26 1 39 29 73 18 22 37 50 41
63 3 12 17 46 30 74 13 29 35 99 50 155 30 117 29 202 -3 265 -28 55 -57 55
-109 1z m75 -50 c5 -13 7 -41 5 -63 -4 -53 -66 -255 -99 -325 l-26 -55 5 105
c3 58 7 115 10 127 2 11 8 43 12 70 8 60 19 89 47 130 26 39 35 41 46 11z
m838 -1040 c41 -45 88 -230 76 -303 -11 -68 -25 -46 -69 105 -25 85 -46 220
-34 220 4 0 16 -10 27 -22z m-463 -47 c23 -26 17 -60 -15 -84 -23 -16 -30 -17
-50 -7 -30 16 -39 29 -39 57 0 49 70 72 104 34z m2679 -68 c-11 -98 -89 -324
-129 -378 -24 -33 -35 0 -31 92 3 68 9 92 35 145 28 53 119 188 128 188 2 0 0
-21 -3 -47z m-3221 12 c-24 -14 -57 -34 -73 -46 -17 -12 -32 -19 -35 -17 -5 6
77 65 108 77 43 18 43 11 0 -14z m198 -1 c0 -22 -67 -105 -115 -142 -82 -62
-342 -169 -362 -148 -10 10 97 104 185 162 88 58 176 105 239 129 50 18 53 18
53 -1z m-320 -78 c0 -2 -8 -10 -17 -17 -16 -13 -17 -12 -4 4 13 16 21 21 21
13z m3625 -293 c14 -15 25 -33 25 -40 0 -17 -52 -43 -76 -38 -10 2 -22 4 -25
4 -4 1 -9 13 -12 28 -3 19 2 33 19 50 30 29 38 29 69 -4z"/>
<path d="M1297 2977 c-39 -13 -56 -74 -36 -130 11 -33 21 -44 52 -56 63 -23
145 10 165 68 12 34 -7 83 -40 104 -29 19 -105 26 -141 14z m104 -47 c39 -21
15 -80 -38 -93 -34 -8 -55 13 -49 48 9 48 46 67 87 45z"/>
<path d="M6144 2982 c-58 -9 -76 -89 -29 -129 56 -49 125 -19 125 53 0 44 -51
84 -96 76z m42 -87 c-3 -9 -14 -15 -23 -13 -22 4 -30 38 -11 49 18 11 43 -15
34 -36z"/>
<path d="M2079 2731 c-20 -8 -83 -79 -102 -116 -42 -83 -59 -254 -32 -334 19
-59 48 -85 76 -70 23 12 87 110 106 163 24 65 29 231 9 298 -16 57 -29 70 -57
59z m10 -191 c-3 -82 -13 -132 -41 -192 -42 -94 -64 -63 -55 80 5 86 20 135
60 201 l21 35 8 -30 c5 -16 8 -58 7 -94z"/>
<path d="M1010 2691 c-46 -15 -119 -53 -131 -67 -19 -23 -2 -44 64 -74 116
-52 250 -83 367 -84 122 -1 156 6 163 33 6 26 -83 96 -195 152 -72 36 -92 42
-163 45 -44 2 -91 0 -105 -5z m263 -95 c50 -29 84 -53 78 -59 -10 -10 -141
-13 -194 -4 -50 9 -197 66 -197 77 0 8 40 24 85 33 11 2 47 4 80 3 52 -1 71
-7 148 -50z"/>
<path d="M5422 2396 c-62 -71 -94 -169 -105 -326 -7 -89 33 -200 72 -200 22 0
60 53 100 140 49 108 64 175 57 244 -19 167 -60 215 -124 142z m48 -83 c1 -5
3 -25 6 -45 7 -44 -26 -169 -61 -236 -26 -51 -25 -52 -29 38 -4 83 46 250 74
250 6 0 10 -3 10 -7z"/>
<path d="M1483 2298 c-56 -15 -78 -83 -48 -153 27 -65 126 -74 178 -15 30 34
34 58 13 98 -30 58 -86 85 -143 70z m85 -66 c20 -26 14 -49 -19 -70 -32 -20
-68 -19 -70 2 -8 76 47 119 89 68z"/>
<path d="M6280 2279 c-89 -12 -161 -44 -218 -97 -29 -27 -52 -54 -52 -61 0 -7
19 -21 43 -31 78 -36 355 -24 453 19 52 23 124 88 124 111 0 36 -21 44 -140
55 -119 11 -151 11 -210 4z m239 -68 c9 -6 -5 -17 -50 -39 -50 -25 -82 -33
-149 -37 -169 -12 -210 -13 -210 -5 0 14 87 60 142 74 58 16 245 21 267 7z"/>
<path d="M5795 2148 c-41 -23 -66 -53 -71 -89 -5 -29 -22 -52 -83 -111 -143
-140 -376 -298 -437 -298 -27 0 -36 -12 -28 -34 4 -11 18 -16 43 -16 55 0 98
15 185 65 l80 45 84 -56 c98 -66 200 -102 312 -109 41 -3 95 -8 120 -12 101
-14 165 -3 252 46 56 30 61 52 21 88 -39 34 -66 47 -158 76 -118 37 -265 59
-393 59 -129 1 -126 -9 -24 98 l62 65 70 0 c86 0 100 11 102 83 2 44 -2 56
-22 77 -29 28 -86 40 -115 23z m75 -84 c0 -32 -52 -61 -70 -39 -16 19 -3 54
23 64 31 12 47 3 47 -25z m95 -339 c153 -32 245 -65 245 -88 0 -15 -90 -48
-138 -50 -195 -6 -413 49 -499 126 -12 11 -20 23 -18 27 9 14 328 3 410 -15z"/>
<path d="M2244 2125 c-30 -30 -31 -66 -1 -101 30 -35 88 -36 123 -3 42 39 4
110 -64 123 -27 5 -38 1 -58 -19z m79 -44 c3 -12 -1 -22 -10 -25 -26 -10 -33
-6 -33 19 0 31 35 35 43 6z"/>
<path d="M2288 1712 c-18 -10 -39 -29 -46 -44 -11 -24 -10 -34 7 -73 30 -68
98 -86 162 -42 56 37 58 102 5 142 -41 31 -87 37 -128 17z m99 -58 c9 -23 -25
-64 -52 -64 -36 0 -46 47 -17 71 24 19 60 15 69 -7z"/>
<path d="M5382 1550 c-21 -20 -24 -29 -24 -65 0 -36 4 -45 34 -75 29 -29 36
-32 77 -27 104 12 124 124 31 172 -41 21 -92 19 -118 -5z m116 -53 c41 -32
-19 -81 -64 -52 -28 18 -30 32 -8 56 15 17 47 16 72 -4z"/>
<path d="M2738 1499 c-63 -10 -169 -45 -239 -80 -105 -52 -159 -133 -124 -185
20 -31 34 -30 240 33 176 53 347 223 235 234 -45 4 -70 4 -112 -2z m7 -84
c-22 -19 -71 -50 -110 -69 -71 -36 -195 -71 -195 -56 0 14 57 57 107 79 26 13
56 27 66 32 15 8 147 46 167 48 3 0 -13 -15 -35 -34z"/>
<path d="M4880 1417 c0 -41 106 -148 200 -204 48 -28 134 -55 178 -56 58 0
153 23 159 39 17 45 -205 193 -332 220 -83 18 -205 18 -205 1z m230 -79 c66
-22 164 -70 189 -94 12 -11 10 -14 -14 -20 -63 -16 -197 40 -277 115 l-33 32
35 -6 c19 -3 64 -15 100 -27z"/>
</g>
</svg>
